<svg width="160" height="80" viewBox="0 0 160 80" fill="none" xmlns="http://www.w3.org/2000/svg">
<path d="M0 0H160V80H0V0Z" fill="#E00000" fill-opacity="0.96"/>
<path d="M54.1136 49V31.5455H56.2273V47.125H64.3409V49H54.1136ZM72.6591 49.2727C71.4773 49.2727 70.4403 48.9915 69.5483 48.429C68.6619 47.8665 67.9688 47.0795 67.4688 46.0682C66.9744 45.0568 66.7273 43.875 66.7273 42.5227C66.7273 41.1591 66.9744 39.9687 67.4688 38.9517C67.9688 37.9347 68.6619 37.1449 69.5483 36.5824C70.4403 36.0199 71.4773 35.7386 72.6591 35.7386C73.8409 35.7386 74.875 36.0199 75.7614 36.5824C76.6534 37.1449 77.3466 37.9347 77.8409 38.9517C78.3409 39.9687 78.5909 41.1591 78.5909 42.5227C78.5909 43.875 78.3409 45.0568 77.8409 46.0682C77.3466 47.0795 76.6534 47.8665 75.7614 48.429C74.875 48.9915 73.8409 49.2727 72.6591 49.2727ZM72.6591 47.4659C73.5568 47.4659 74.2955 47.2358 74.875 46.7756C75.4545 46.3153 75.8835 45.7102 76.1619 44.9602C76.4403 44.2102 76.5795 43.3977 76.5795 42.5227C76.5795 41.6477 76.4403 40.8324 76.1619 40.0767C75.8835 39.321 75.4545 38.7102 74.875 38.2443C74.2955 37.7784 73.5568 37.5455 72.6591 37.5455C71.7614 37.5455 71.0227 37.7784 70.4432 38.2443C69.8636 38.7102 69.4347 39.321 69.1562 40.0767C68.8778 40.8324 68.7386 41.6477 68.7386 42.5227C68.7386 43.3977 68.8778 44.2102 69.1562 44.9602C69.4347 45.7102 69.8636 46.3153 70.4432 46.7756C71.0227 47.2358 71.7614 47.4659 72.6591 47.4659ZM86.9453 54.1818C85.9737 54.1818 85.1385 54.0568 84.4396 53.8068C83.7408 53.5625 83.1584 53.2386 82.6925 52.8352C82.2322 52.4375 81.8658 52.0114 81.593 51.5568L83.1953 50.4318C83.3771 50.6705 83.6072 50.9432 83.8857 51.25C84.1641 51.5625 84.5447 51.8324 85.0277 52.0597C85.5163 52.2926 86.1555 52.4091 86.9453 52.4091C88.0021 52.4091 88.8743 52.1534 89.5618 51.642C90.2493 51.1307 90.593 50.3295 90.593 49.2386V46.5795H90.4226C90.2749 46.8182 90.0646 47.1136 89.7919 47.4659C89.5249 47.8125 89.1385 48.1222 88.6328 48.3949C88.1328 48.6619 87.4567 48.7955 86.6044 48.7955C85.5476 48.7955 84.5987 48.5455 83.7578 48.0455C82.9226 47.5455 82.2607 46.8182 81.772 45.8636C81.2891 44.9091 81.0476 43.75 81.0476 42.3864C81.0476 41.0455 81.2834 39.8778 81.755 38.8835C82.2266 37.8835 82.8828 37.1108 83.7237 36.5653C84.5646 36.0142 85.5362 35.7386 86.6385 35.7386C87.4908 35.7386 88.1669 35.8807 88.6669 36.1648C89.1726 36.4432 89.5589 36.7614 89.826 37.1193C90.0987 37.4716 90.3089 37.7614 90.4567 37.9886H90.6612V35.9091H92.6044V49.375C92.6044 50.5 92.3487 51.4148 91.8374 52.1193C91.3317 52.8295 90.6499 53.3494 89.7919 53.679C88.9396 54.0142 87.9908 54.1818 86.9453 54.1818ZM86.8771 46.9886C87.6839 46.9886 88.3658 46.804 88.9226 46.4347C89.4794 46.0653 89.9027 45.5341 90.1925 44.8409C90.4822 44.1477 90.6271 43.3182 90.6271 42.3523C90.6271 41.4091 90.4851 40.5767 90.201 39.8551C89.9169 39.1335 89.4964 38.5682 88.9396 38.1591C88.3828 37.75 87.6953 37.5455 86.8771 37.5455C86.0249 37.5455 85.3146 37.7614 84.7464 38.1932C84.1839 38.625 83.7607 39.2045 83.4766 39.9318C83.1982 40.6591 83.0589 41.4659 83.0589 42.3523C83.0589 43.2614 83.201 44.0653 83.4851 44.7642C83.7749 45.4574 84.201 46.0028 84.7635 46.4006C85.3317 46.7926 86.0362 46.9886 86.8771 46.9886ZM101.604 49.2727C100.423 49.2727 99.3857 48.9915 98.4936 48.429C97.6072 47.8665 96.9141 47.0795 96.4141 46.0682C95.9197 45.0568 95.6726 43.875 95.6726 42.5227C95.6726 41.1591 95.9197 39.9687 96.4141 38.9517C96.9141 37.9347 97.6072 37.1449 98.4936 36.5824C99.3857 36.0199 100.423 35.7386 101.604 35.7386C102.786 35.7386 103.82 36.0199 104.707 36.5824C105.599 37.1449 106.292 37.9347 106.786 38.9517C107.286 39.9687 107.536 41.1591 107.536 42.5227C107.536 43.875 107.286 45.0568 106.786 46.0682C106.292 47.0795 105.599 47.8665 104.707 48.429C103.82 48.9915 102.786 49.2727 101.604 49.2727ZM101.604 47.4659C102.502 47.4659 103.241 47.2358 103.82 46.7756C104.4 46.3153 104.829 45.7102 105.107 44.9602C105.386 44.2102 105.525 43.3977 105.525 42.5227C105.525 41.6477 105.386 40.8324 105.107 40.0767C104.829 39.321 104.4 38.7102 103.82 38.2443C103.241 37.7784 102.502 37.5455 101.604 37.5455C100.707 37.5455 99.968 37.7784 99.3885 38.2443C98.8089 38.7102 98.38 39.321 98.1016 40.0767C97.8232 40.8324 97.6839 41.6477 97.6839 42.5227C97.6839 43.3977 97.8232 44.2102 98.1016 44.9602C98.38 45.7102 98.8089 46.3153 99.3885 46.7756C99.968 47.2358 100.707 47.4659 101.604 47.4659Z" fill="white"/>
</svg>
